{
  "accessors": [
    {
      "bufferView": 2,
      "componentType": 5126,
      "count": 65532,
      "max": [
        1.0338882207870483,
        0.02834796905517578,
        1.039777398109436
      ],
      "min": [
        -1.0256812572479248,
        -3.631335973739624,
        -1.0348926782608032
      ],
      "type": "VEC3"
    },
    {
      "bufferView": 2,
      "byteOffset": 786384,
      "componentType": 5126,
      "count": 65532,
      "max": [
        1.0,
        1.0,
        1.0
      ],
      "min": [
        -1.0,
        -1.0,
        -1.0
      ],
      "type": "VEC3"
    },
    {
      "bufferView": 1,
      "componentType": 5126,
      "count": 65532,
      "max": [
        1.0,
        1.0
      ],
      "min": [
        0.0,
        0.0
      ],
      "type": "VEC2"
    },
    {
      "bufferView": 0,
      "componentType": 5125,
      "count": 112467,
      "type": "SCALAR"
    },
    {
      "bufferView": 2,
      "byteOffset": 1572768,
      "componentType": 5126,
      "count": 65533,
      "max": [
        1.0,
        0.0,
        1.0
      ],
      "min": [
        -1.0,
        -5.3310394287109375,
        -1.0
      ],
      "type": "VEC3"
    },
    {
      "bufferView": 2,
      "byteOffset": 2359164,
      "componentType": 5126,
      "count": 65533,
      "max": [
        1.0,
        1.0,
        1.0
      ],
      "min": [
        -1.0,
        -1.0,
        -1.0
      ],
      "type": "VEC3"
    },
    {
      "bufferView": 1,
      "byteOffset": 524256,
      "componentType": 5126,
      "count": 65533,
      "max": [
        1.0,
        1.0
      ],
      "min": [
        0.0,
        0.0
      ],
      "type": "VEC2"
    },
    {
      "bufferView": 0,
      "byteOffset": 449868,
      "componentType": 5125,
      "count": 113502,
      "type": "SCALAR"
    },
    {
      "bufferView": 2,
      "byteOffset": 3145560,
      "componentType": 5126,
      "count": 51027,
      "max": [
        0.893860936164856,
        -1.9316327571868896,
        0.8987215757369995
      ],
      "min": [
        -0.885651707649231,
        -5.3310394287109375,
        -0.8938384056091309
      ],
      "type": "VEC3"
    },
    {
      "bufferView": 2,
      "byteOffset": 3757884,
      "componentType": 5126,
      "count": 51027,
      "max": [
        1.0,
        1.0,
        1.0
      ],
      "min": [
        -1.0,
        -1.0,
        -1.0
      ],
      "type": "VEC3"
    },
    {
      "bufferView": 1,
      "byteOffset": 1048520,
      "componentType": 5126,
      "count": 51027,
      "max": [
        1.0,
        1.0
      ],
      "min": [
        0.0,
        0.0
      ],
      "type": "VEC2"
    },
    {
      "bufferView": 0,
      "byteOffset": 903876,
      "componentType": 5125,
      "count": 88221,
      "type": "SCALAR"
    },
    {
      "bufferView": 2,
      "byteOffset": 4370208,
      "componentType": 5126,
      "count": 2880,
      "max": [
        0.8553546667098999,
        -0.32682085037231445,
        0.8533025979995728
      ],
      "min": [
        -0.8471453189849854,
        -5.241855621337891,
        -0.8484196066856384
      ],
      "type": "VEC3"
    },
    {
      "bufferView": 2,
      "byteOffset": 4404768,
      "componentType": 5126,
      "count": 2880,
      "max": [
        1.0,
        1.5930469317027018e-06,
        1.0
      ],
      "min": [
        -1.0,
        -1.3939151131125982e-06,
        -1.0
      ],
      "type": "VEC3"
    },
    {
      "bufferView": 1,
      "byteOffset": 1456736,
      "componentType": 5126,
      "count": 2880,
      "max": [
        0.978607177734375,
        0.9441717863082886
      ],
      "min": [
        0.02332659810781479,
        0.052470382302999496
      ],
      "type": "VEC2"
    },
    {
      "bufferView": 0,
      "byteOffset": 1256760,
      "componentType": 5125,
      "count": 4320,
      "type": "SCALAR"
    }
  ],
  "asset": {
    "extras": {
      "author": "Shalmon (https://sketchfab.com/nashalanandas)",
      "license": "CC-BY-4.0 (http://creativecommons.org/licenses/by/4.0/)",
      "source": "https://sketchfab.com/3d-models/building-07-e1f85752415047e986a7e60d3789886f",
      "title": "Building 07"
    },
    "generator": "Sketchfab-11.22.0",
    "version": "2.0"
  },
  "bufferViews": [
    {
      "buffer": 0,
      "byteLength": 1274040,
      "name": "floatBufferViews",
      "target": 34963
    },
    {
      "buffer": 0,
      "byteLength": 1479776,
      "byteOffset": 1274040,
      "byteStride": 8,
      "name": "floatBufferViews",
      "target": 34962
    },
    {
      "buffer": 0,
      "byteLength": 4439328,
      "byteOffset": 2753816,
      "byteStride": 12,
      "name": "floatBufferViews",
      "target": 34962
    }
  ],
  "buffers": [
    {
      "byteLength": 7193144,
      "uri": "scene.bin"
    }
  ],
  "images": [
    {
      "uri": "textures/TexturesCom_BuildingsHighRise0639_5_seamless_S_baseColor.png"
    }
  ],
  "materials": [
    {
      "doubleSided": true,
      "name": "TexturesCom_BuildingsHighRise0639_5_seamless_S",
      "pbrMetallicRoughness": {
        "baseColorTexture": {
          "index": 0
        },
        "metallicFactor": 0.0,
        "roughnessFactor": 0.5
      }
    },
    {
      "doubleSided": true,
      "name": "TexturesCom_BuildingsHighRise0639_5_seamless_S.001",
      "pbrMetallicRoughness": {
        "baseColorTexture": {
          "index": 0
        },
        "metallicFactor": 0.0,
        "roughnessFactor": 0.0
      }
    }
  ],
  "meshes": [
    {
      "name": "Object_0",
      "primitives": [
        {
          "attributes": {
            "NORMAL": 1,
            "POSITION": 0,
            "TEXCOORD_0": 2
          },
          "indices": 3,
          "material": 0,
          "mode": 4
        }
      ]
    },
    {
      "name": "Object_1",
      "primitives": [
        {
          "attributes": {
            "NORMAL": 5,
            "POSITION": 4,
            "TEXCOORD_0": 6
          },
          "indices": 7,
          "material": 0,
          "mode": 4
        }
      ]
    },
    {
      "name": "Object_2",
      "primitives": [
        {
          "attributes": {
            "NORMAL": 9,
            "POSITION": 8,
            "TEXCOORD_0": 10
          },
          "indices": 11,
          "material": 0,
          "mode": 4
        }
      ]
    },
    {
      "name": "Object_3",
      "primitives": [
        {
          "attributes": {
            "NORMAL": 13,
            "POSITION": 12,
            "TEXCOORD_0": 14
          },
          "indices": 15,
          "material": 1,
          "mode": 4
        }
      ]
    }
  ],
  "nodes": [
    {
      "children": [
        1
      ],
      "matrix": [
        1.0,
        0.0,
        0.0,
        0.0,
        0.0,
        2.220446049250313e-16,
        -1.0,
        0.0,
        0.0,
        1.0,
        2.220446049250313e-16,
        0.0,
        0.0,
        0.0,
        0.0,
        1.0
      ],
      "name": "Sketchfab_model"
    },
    {
      "children": [
        2
      ],
      "name": "root"
    },
    {
      "children": [
        3
      ],
      "matrix": [
        1.0,
        0.0,
        0.0,
        0.0,
        0.0,
        2.220446049250313e-16,
        1.0,
        0.0,
        0.0,
        -1.0,
        2.220446049250313e-16,
        0.0,
        0.0,
        0.0,
        0.0,
        1.0
      ],
      "name": "GLTF_SceneRootNode"
    },
    {
      "children": [
        4,
        5,
        6,
        7
      ],
      "matrix": [
        0.5883379578590393,
        0.0,
        0.0,
        0.0,
        0.0,
        0.5883379578590393,
        0.0,
        0.0,
        0.0,
        0.0,
        0.5883379578590393,
        0.0,
        -0.5121551752090454,
        2.6364529132843018,
        -0.0034463624469935894,
        1.0
      ],
      "name": "Plane_0"
    },
    {
      "mesh": 0,
      "name": "Object_4"
    },
    {
      "mesh": 1,
      "name": "Object_5"
    },
    {
      "mesh": 2,
      "name": "Object_6"
    },
    {
      "mesh": 3,
      "name": "Object_7"
    }
  ],
  "samplers": [
    {
      "magFilter": 9729,
      "minFilter": 9987,
      "wrapS": 33071,
      "wrapT": 33071
    }
  ],
  "scene": 0,
  "scenes": [
    {
      "name": "Sketchfab_Scene",
      "nodes": [
        0
      ]
    }
  ],
  "textures": [
    {
      "sampler": 0,
      "source": 0
    }
  ]
}
