{
  "accessors": [
    {
      "bufferView": 2,
      "componentType": 5126,
      "count": 3742,
      "max": [
        1600,
        1600.0009765625,
        4945.001953125
      ],
      "min": [
        -1600.0013427734375,
        -1729.0286865234375,
        -0.000244140625
      ],
      "type": "VEC3"
    },
    {
      "bufferView": 2,
      "byteOffset": 44904,
      "componentType": 5126,
      "count": 3742,
      "max": [
        1,
        1,
        1
      ],
      "min": [
        -1,
        -1,
        -1
      ],
      "type": "VEC3"
    },
    {
      "bufferView": 1,
      "componentType": 5126,
      "count": 3742,
      "max": [
        0.99973523616790771,
        0.99980366230010986
      ],
      "min": [
        -0.33817189931869507,
        0.0016166884452104568
      ],
      "type": "VEC2"
    },
    {
      "bufferView": 1,
      "byteOffset": 29936,
      "componentType": 5126,
      "count": 3742,
      "max": [
        0.99900001287460327,
        0.99802577495574951
      ],
      "min": [
        0.0010000000474974513,
        0.0010000000474974513
      ],
      "type": "VEC2"
    },
    {
      "bufferView": 1,
      "byteOffset": 59872,
      "componentType": 5126,
      "count": 3742,
      "max": [
        0.99973523616790771,
        0.99980366230010986
      ],
      "min": [
        -0.33817189931869507,
        0.0016166884452104568
      ],
      "type": "VEC2"
    },
    {
      "bufferView": 1,
      "byteOffset": 89808,
      "componentType": 5126,
      "count": 3742,
      "max": [
        0.99973523616790771,
        0.99980366230010986
      ],
      "min": [
        -0.33817189931869507,
        0.0016166884452104568
      ],
      "type": "VEC2"
    },
    {
      "bufferView": 0,
      "componentType": 5125,
      "count": 5679,
      "max": [
        3741
      ],
      "min": [
        0
      ],
      "type": "SCALAR"
    }
  ],
  "asset": {
    "extras": {
      "author": "aitortilla01 (https://sketchfab.com/aitortilla01)",
      "license": "CC-BY-4.0 (http://creativecommons.org/licenses/by/4.0/)",
      "source": "https://sketchfab.com/3d-models/mid-rise-wall-to-wall-office-building-4d2c3f3450ef4e849056b88b49873ce2",
      "title": "Mid rise wall to wall office building"
    },
    "generator": "Sketchfab-8.76.0",
    "version": "2.0"
  },
  "bufferViews": [
    {
      "buffer": 0,
      "byteLength": 22716,
      "byteOffset": 0,
      "name": "floatBufferViews",
      "target": 34963
    },
    {
      "buffer": 0,
      "byteLength": 119744,
      "byteOffset": 22716,
      "byteStride": 8,
      "name": "floatBufferViews",
      "target": 34962
    },
    {
      "buffer": 0,
      "byteLength": 89808,
      "byteOffset": 142460,
      "byteStride": 12,
      "name": "floatBufferViews",
      "target": 34962
    }
  ],
  "buffers": [
    {
      "byteLength": 232268,
      "uri": "scene.bin"
    }
  ],
  "images": [
    {
      "uri": "textures/b_hotr04_W2W7_t2_l1_baseColor.png"
    }
  ],
  "materials": [
    {
      "doubleSided": true,
      "name": "b_hotr04_W2W7_t2_l1",
      "pbrMetallicRoughness": {
        "baseColorFactor": [
          1,
          1,
          1,
          1
        ],
        "baseColorTexture": {
          "index": 0,
          "texCoord": 0
        },
        "metallicFactor": 0,
        "roughnessFactor": 0.59999999999999998
      }
    }
  ],
  "meshes": [
    {
      "name": "AIT01W2W7_b_hotr04_W2W7_t2_l1_0",
      "primitives": [
        {
          "attributes": {
            "NORMAL": 1,
            "POSITION": 0,
            "TEXCOORD_0": 2,
            "TEXCOORD_1": 3,
            "TEXCOORD_2": 4,
            "TEXCOORD_3": 5
          },
          "indices": 6,
          "material": 0,
          "mode": 4
        }
      ]
    }
  ],
  "nodes": [
    {
      "children": [
        1
      ],
      "name": "RootNode (gltf orientation matrix)",
      "rotation": [
        -0.70710678118654746,
        -0,
        -0,
        0.70710678118654757
      ]
    },
    {
      "children": [
        2
      ],
      "name": "RootNode (model correction matrix)"
    },
    {
      "children": [
        3
      ],
      "matrix": [
        1,
        0,
        0,
        0,
        0,
        0,
        1,
        0,
        0,
        -1,
        0,
        0,
        0,
        0,
        0,
        1
      ],
      "name": "AIT01W2W7.FBX"
    },
    {
      "children": [
        4
      ],
      "name": "RootNode"
    },
    {
      "children": [
        5
      ],
      "matrix": [
        1,
        0,
        0,
        0,
        0,
        2.2204460492503131e-16,
        -1,
        0,
        0,
        1,
        2.2204460492503131e-16,
        0,
        0.000244140625,
        0,
        0,
        1
      ],
      "name": "AIT01W2W7"
    },
    {
      "mesh": 0,
      "name": "AIT01W2W7_b_hotr04_W2W7_t2_l1_0"
    }
  ],
  "samplers": [
    {
      "magFilter": 9729,
      "minFilter": 9987,
      "wrapS": 10497,
      "wrapT": 10497
    }
  ],
  "scene": 0,
  "scenes": [
    {
      "name": "OSG_Scene",
      "nodes": [
        0
      ]
    }
  ],
  "textures": [
    {
      "sampler": 0,
      "source": 0
    }
  ]
}

